<svg id="Layer_1" data-name="Layer 1" xmlns="http://www.w3.org/2000/svg" viewBox="0 0 50 50"><defs><style>.cls-1{fill:#fdfdfc;}.cls-2{fill:#8cae1d;}.cls-3{fill:#17b7d4;}</style></defs><path class="cls-1" d="M281,371h50v50H281ZM308,392.19a.8.8,0,0,1-.06-.6,33.32,33.32,0,0,1,1.22-6.26c.36-1.28.78-2.54,1.16-3.82.07-.21.2-.46-.14-.71a50.54,50.54,0,0,0-2.63,8.64c-.07-.08-.11-.14-.1-.2.18-1.44.23-2.89.55-4.31.15-.62.5-1.15.68-1.74.35-1.16.71-2.31,1.09-3.47a11.94,11.94,0,0,0,.29-1.27c-.33.27-.81.47-1,.83a20.62,20.62,0,0,0-1.23,3.26c-.17.58,0,1.15-.13,1.72a19.79,19.79,0,0,0-.59,3.44,4.19,4.19,0,0,1-.26,1.41.85.85,0,0,1-.1-.55c.1-1,0-2,.23-3,.29-1.52.48-3.06.91-4.55a7.27,7.27,0,0,1,.94-2.55.22.22,0,0,0-.05-.35c-.15-.1-.26,0-.32.13s-.22.44-.32.67c-.35.86-.52,1.77-.82,2.64a18,18,0,0,1-.5,1.84,1.36,1.36,0,0,1,0-.71,32.75,32.75,0,0,1,1.47-5.95c.07-.19.33-.46,0-.59s-.34.23-.44.43-.08.22-.12.33a24.68,24.68,0,0,0-1.12,4.5.66.66,0,0,1-.24.53.47.47,0,0,1-.12-.38c0-1.18,0-2.36.07-3.54a2,2,0,0,1,.11-.94,2.61,2.61,0,0,0,.22-1.46,21,21,0,0,1,.07-2.75,3.93,3.93,0,0,0,0-.84.51.51,0,0,0-.42-.5.55.55,0,0,0-.59.37,1.18,1.18,0,0,0-.1.43c0,.88,0,1.76-.12,2.64a16,16,0,0,0,.32,2.77c.07.78,0,1.56.06,2.34a2.17,2.17,0,0,1-.16,1.3,14.29,14.29,0,0,0-1.78-4.1.6.6,0,0,0-.06.72,18.08,18.08,0,0,1,1.33,3.33,7.87,7.87,0,0,1,.34,2.17,22.2,22.2,0,0,0-1.9-4.19.45.45,0,0,0-.07.61,21.25,21.25,0,0,1,2,6.15c.13.81.15,1.63.23,2.58-.39-.4-.3-.82-.4-1.16a9.48,9.48,0,0,1-.59-2.62,2.72,2.72,0,0,0-.22-1.06,17.1,17.1,0,0,1-.85-1.91A4.78,4.78,0,0,0,302,380s-.12,0-.37,0c.44.43.4.92.57,1.34.49,1.15,1.07,2.25,1.56,3.4a10.08,10.08,0,0,1,.68,1.4,23.26,23.26,0,0,1,1,5.74c0,.18.06.38-.08.55-.05,0-.09,0-.1-.06a.7.7,0,0,1-.06-.19,23.3,23.3,0,0,0-1.51-5.73,26.3,26.3,0,0,0-1.65-3.1c-.07-.13-.18-.28-.36-.18s-.1.26,0,.4a1,1,0,0,0,.12.23,19.46,19.46,0,0,1,1.74,3.4,1.5,1.5,0,0,1,.09.67c-.17,0-.2-.16-.24-.26a10,10,0,0,0-1.47-2.37c-.09-.12-.19-.33-.39-.17s-.08.3,0,.45a14.53,14.53,0,0,1,2.15,3.92,8.4,8.4,0,0,1,.56,3.3c-.34-.7-.37-1.49-.7-2.19a9.84,9.84,0,0,0-1.15-2,.52.52,0,0,0,0,.75,9.64,9.64,0,0,1,1.07,2.67,3.57,3.57,0,0,1,.1,1.8,7,7,0,0,0-1.28-2.48c-.34.32-.16.6,0,.86a5.32,5.32,0,0,1,.74,2.36,4.92,4.92,0,0,1-.11,1.38c-.06.2,0,.43.23.47s.39-.11.42-.37,0-.37.17-.51c.14.15.13.34.19.51s.09.26.25.28.27-.1.35-.23a1.31,1.31,0,0,0,.15-.52c0-.17,0-.35.22-.47.11.17.06.32.09.46s-.15.72.27.73.34-.43.4-.72-.07-.63.17-.89c.2.13.15.3.14.46s-.05.5,0,.75,0,.43.3.44.31-.2.31-.41,0-.33,0-.5c0-.54,0-.54.26-.82a9.09,9.09,0,0,1,.09,1.46c0,.22,0,.46.33.46s.23-.27.24-.46a4,4,0,0,1,.09-1.19,1.81,1.81,0,0,1,.13.34q.11.54.18,1.08c0,.26.16.43.4.41s.16-.28.16-.44a1.17,1.17,0,0,1,.1-.73c.18.49.32.89.47,1.29.06.16.18.25.35.18a.25.25,0,0,0,.13-.34c0-.11-.07-.22-.1-.34a4.55,4.55,0,0,1-.11-2.56,5.78,5.78,0,0,1,.39-1.22c.09-.16.14-.38-.07-.48s-.28.12-.36.26,0,.17-.06.23c-.23.31-.26.74-.59,1.07-.1-.33.06-.54.09-.77a29.51,29.51,0,0,1,.87-4.36c.13-.48.32-.94.49-1.41.06-.18.13-.38-.09-.48s-.33.15-.41.32,0,.13-.07.19a22.52,22.52,0,0,0-1.19,4.58A.9.9,0,0,1,308,392.19Zm3.16,6c-.14-.14-.4-.15-.39-.36,0-.72-.4-.54-.78-.5a.28.28,0,0,0,0,.27c.37.61,1,1.06,1.28,1.71a.38.38,0,0,0,.69-.08,2.26,2.26,0,0,1,.88-.93,1.91,1.91,0,0,0,.56-.7.26.26,0,0,0-.15-.4.61.61,0,0,0-.7.43c-.06.36-.31.5-.63.58a1.19,1.19,0,0,1,.55-1.43,3.08,3.08,0,0,0,1-1.06c.1-.18.09-.37-.17-.42s-.54-.07-.52.21c0,.61-.51.64-.77,1a1.41,1.41,0,0,1,.36-1.55,4.5,4.5,0,0,0,.92-1c.11-.14.2-.29.08-.45s-.27-.09-.41-.07-.38.08-.36.32c0,.51-.38.62-.69.93a1.58,1.58,0,0,1,.69-1.8,2.54,2.54,0,0,0,.63-.72c.1-.16.27-.37.09-.54s-.38-.08-.57,0-.22.1-.26.23c.32.44,0,.94-.66,1.06a2.19,2.19,0,0,1,.54-1.66,7.51,7.51,0,0,0,.77-.92.36.36,0,0,0,.05-.46.27.27,0,0,0-.27-.09.34.34,0,0,0-.3.34c-.05.4-.36.59-.7.85a1.61,1.61,0,0,1,.42-1.46,5.55,5.55,0,0,0,.94-1.28c.13-.29,0-.42-.25-.44a.54.54,0,0,0-.53.19c.2.45.06.75-.54,1.08a2.51,2.51,0,0,1,.36-1.95c.29-.35.41-.78.67-1.14a.3.3,0,0,0-.05-.41c-.16-.14-.32-.05-.47,0s-.2.18-.13.36c.16.37-.1.52-.39.69a.73.73,0,0,1-.05-.64,3.77,3.77,0,0,1,.4-.92,2.35,2.35,0,0,0,.34-1.53c0-.17-.06-.35-.3-.31s-.64.77-.49,1c.29.41,0,.61-.28.93-.15-.38-.5-.59-.19-1,.18-.25-.09-.5-.27-.68s-.25-.24-.4-.12-.16.38-.13.6a4.1,4.1,0,0,0,.54,1.38,2.14,2.14,0,0,1,.24,1.44c-.36-.21-.58-.41-.43-.78a.25.25,0,0,0-.07-.34.36.36,0,0,0-.37-.06c-.16.06-.16.2-.15.33a1.43,1.43,0,0,0,.44.91,2.45,2.45,0,0,1,.61,2.23c-.27-.23-.58-.44-.46-.86.05-.17.05-.28-.11-.37a.33.33,0,0,0-.37-.06.35.35,0,0,0-.14.44,2.47,2.47,0,0,0,.52.9,2.22,2.22,0,0,1,.55,1.95c-.56-.25-.66-.5-.46-1-.19-.22-.43-.34-.69-.15s0,.43.05.62a4.4,4.4,0,0,0,.67.93,1.46,1.46,0,0,1,.28,1.43c-.31-.33-.71-.45-.53-.94.06-.16-.05-.25-.19-.29a.51.51,0,0,0-.48,0c-.13.11,0,.25,0,.36a5.6,5.6,0,0,0,.77,1,1.29,1.29,0,0,1,.32,1.42c-.42-.14-.49-.42-.3-.79a2.44,2.44,0,0,0-.33-.19c-.15-.06-.3-.2-.46-.06s0,.32,0,.46a3.71,3.71,0,0,0,.65.93,1.76,1.76,0,0,1,.5,1.61c-.36-.17-.64-.31-.57-.71,0-.23-.1-.33-.29-.4s-.26-.12-.37,0,0,.31,0,.47a1.68,1.68,0,0,0,.66.85A1.47,1.47,0,0,1,311.11,398.2Zm-7.29-1.4a1.35,1.35,0,0,0-.24-.06,9.4,9.4,0,0,0-4,1.07c-.52.27-.49.78,0,1.18a5.24,5.24,0,0,0,2.09.89,12.94,12.94,0,0,0,5,.15,10.88,10.88,0,0,0,2.39-.47.84.84,0,0,0,.52-1.39,1.89,1.89,0,0,0-1-.75,17.91,17.91,0,0,0-2-.61,2.66,2.66,0,0,0-2.64.78c-.18.16-.26.44-.55.52C303.29,397.59,303.67,397.27,303.82,396.8Zm7.07,3.26c.37.41.83.62.92,1.12-.2.05-.28-.07-.39-.15a3.53,3.53,0,0,0-1.41-.7,6.3,6.3,0,0,0-3.85.47.9.9,0,0,0-.1,1.61,3.44,3.44,0,0,0,1.58.58,37.57,37.57,0,0,0,4.38.22,9.36,9.36,0,0,0,2.93-.52c.83-.29,1-1,.27-1.55A5.76,5.76,0,0,0,310.89,400.06Zm8.9.2c-.48-.23-.86.09-1.37.13a1.55,1.55,0,0,1,1.15-.75c.18,0,.43,0,.4-.28s-.28-.25-.48-.21a4.58,4.58,0,0,0-.46.2c-.12,0-.21.24-.41.08,0-.19.1-.3.27-.41a7.36,7.36,0,0,1,.89-.44.31.31,0,0,0,.19-.41c-.09-.21-.26-.15-.43-.09s-.43.3-.76.25a1.13,1.13,0,0,1,.87-.77c.24,0,.42-.19.34-.46s-.33-.16-.54-.12-.3.29-.5.35-.15-.15-.07-.26a2.27,2.27,0,0,1,.67-.71c.27-.15.46-.38.24-.75-.37.09-.58.38-.86.55-.12-.13-.14-.21,0-.35s.35-.61.64-.82a.32.32,0,0,0,.08-.45c-.09-.15-.21-.27-.41-.17s-.15.07-.2,0c.37-1,.36-1-.33-1v-.8a.24.24,0,0,0-.19-.26.27.27,0,0,0-.32.17c-.22.42-.58.8-.18,1.32-.52.08-.54.29-.3.61a1.72,1.72,0,0,1,.29.76c-.19.06-.23-.09-.31-.15s-.23-.18-.35-.06a.28.28,0,0,0,0,.41,2.48,2.48,0,0,0,.3.25c.31.23.36.36.3.81a1.38,1.38,0,0,0-.25-.19c-.16-.07-.3-.37-.49-.12s0,.37.23.52a1.41,1.41,0,0,1,.57,1.1c-.28-.05-.39-.25-.53-.4s-.24-.22-.38-.08-.22.31,0,.48a.75.75,0,0,0,.2.15c.53.29.58.77.57,1.4-.16-.18-.27-.28-.35-.39s-.26-.61-.55-.4,0,.5.18.71a.83.83,0,0,1,.19.23,1,1,0,0,1,.15.94c-.19-.25-.34-.46-.51-.65s-.28-.47-.54-.19-.07.4.14.58a1,1,0,0,1,.38,1.31c-.41-.3-.4-.95-.93-1.15-.32.33-.1.59.08.85.69,1,.45,1.85-.64,2.23-.14.05-.29.07-.43.12s-.39,0-.34.28.29.26.48.2a3.25,3.25,0,0,0,1.49-.75c.42-.47.85-.92,1.58-.67a.23.23,0,0,0,.14,0c.15-.06.3-.13.28-.31s-.17-.18-.31-.2-.33.07-.45-.09.14-.22.28-.22a4.21,4.21,0,0,1,.5,0c.3,0,.6,0,.57-.37s-.35-.19-.56-.17-.28.07-.44,0C318.6,400.58,319.52,401,319.79,400.26Zm-23.92-2.15a2.38,2.38,0,0,0,2.34.12,2.06,2.06,0,0,1,0,.36c-.18.69-.17.66-.87.6a1.51,1.51,0,0,0-1.38.46,2.43,2.43,0,0,0,3.06-.1,2.23,2.23,0,0,1-.47-1.13c-.16-.55.31-1.19-.34-1.7.79.21,1.53.48,2.17-.21-.5-.65-1.18-.42-1.79-.41-.15-.87-.14-.88.65-.91a.68.68,0,0,0,.29,0c.17-.09.44-.12.43-.35s-.23-.32-.45-.38a1.92,1.92,0,0,0-1.2.17,2,2,0,0,0-.15-1.5c.93.19,1.28.19,1.56,0,.12-.06.24-.14.25-.29s-.14-.2-.27-.25a1.82,1.82,0,0,0-1-.1c-.22,0-.44,0-.43-.26s-.21-.71,0-1,.53-.07.8-.11h.05c.25-.05.54-.14.57-.4s-.27-.35-.52-.42a.85.85,0,0,0-.71.11.45.45,0,0,1-.44.09,5.47,5.47,0,0,0,.12-1.3c.3.06.54.26.84.2s.47-.11.49-.35-.27-.29-.48-.32a1.5,1.5,0,0,0-.3,0c-.37,0-.5-.11-.48-.49a1.07,1.07,0,0,0-.36-.94c-.55.4-.27.94-.24,1.45l-.56.06c-.19,0-.41-.12-.44.22s.22.3.38.37a.75.75,0,0,0,.3,0c.35,0,.34.24.35.48s-.14.33-.38.32a1.78,1.78,0,0,0-.69.05c-.18.08-.41.13-.38.4s.24.24.41.31c.38.14.73-.12,1.15-.1a7.87,7.87,0,0,0,0,1.68,2.85,2.85,0,0,0-1.1-.1c-.21.05-.45.09-.46.38s.21.35.43.38a2.28,2.28,0,0,0,.45,0c.47-.06.66.13.67.61s-.2.61-.63.56a1.13,1.13,0,0,0-.45,0c-.21.05-.45.15-.42.41s.22.34.47.36a4.85,4.85,0,0,0,1.28-.12c-.17.41,0,.79-.13,1.15-1.41-.16-1.51-.14-1.72.39a2,2,0,0,0,1.23.31c.3,0,.59,0,.55.43s-.36.27-.59.24A1.54,1.54,0,0,0,295.87,398.11Zm-6.45,12.21h0c-.44,0-.87,0-1.3,0a.56.56,0,0,0-.65.59c-.05,1.42-.05,2.83,0,4.25,0,.47.27.67.74.66.82,0,1.63,0,2.45,0a2.29,2.29,0,0,0,1.31-.42,2.75,2.75,0,0,0,.94-3,2.25,2.25,0,0,0-2.44-2.06Zm2.75-10.13a.84.84,0,0,1,.1-.52,1,1,0,0,0-.1-1c-.22-.3-.49.06-.73,0-.18-1-.18-1-1.12-.48a1.41,1.41,0,0,0-.23-.18c-.2-.1-.41-.26-.65-.12s-.14.41-.14.64.32.55.29.9a.67.67,0,0,1-.18.07c-.2,0-.43,0-.5.26s.17.36.3.52.56.29.78.55c0,.31-.35.47-.39.73.19.65.85.26,1.18.56a.59.59,0,0,1-.1.4c-.06.17-.18.35-.05.52s.33.09.51.06.42-.14.61,0c.2.27-.22.73.32.85.36.08.64-.26,1-.21-.15.72,0,.88.69.78a2,2,0,0,0,.52-.17c.14-.06.25-.23.47-.16.12.24.05.7.58.6.35-.07.56-.4.9-.49.17.52.36.63.66.37a7.29,7.29,0,0,0,.73-.74.21.21,0,0,0,0-.31.23.23,0,0,0-.31,0c-.1.06-.17.17-.34.17-.09-.23-.32-.2-.53-.23-.56-.09-1.12-.09-1.66-.23a6.9,6.9,0,0,1-2.59-1.38,4.43,4.43,0,0,1-1.61-2.61.89.89,0,0,1,.28-.92c.19.36,0,.67,0,1,0,.12,0,.28.15.33s.2-.06.28-.16.19-.27.42-.26a1.22,1.22,0,0,1-.23.7c-.16.23,0,.44.07.65s.33.18.53.17.4-.14.66,0c-.15.28-.61.47-.19.84s.6.45.9-.05c.25,1.18.25,1.18,1.08.84.38.77.93.87,1.45.25a4.27,4.27,0,0,0,.44.41c.1.08.24.16.36,0s0-.25-.08-.35-.39-.37-.59-.54-.47-.63-.89-.22c0,0-.11,0-.14,0-.34-.28-.68,0-1,0-.34-.37.09-1.31-.89-1.12C293.19,400.27,293.19,400.27,292.17,400.19ZM295,411.7h1.71a.35.35,0,0,1,.38.32c0,.23-.16.33-.36.35s-.49,0-.74,0c-.54,0-.83.48-.54.94a13,13,0,0,0,1.81,2.24.7.7,0,1,0,.94-1c-.25-.24-.53-.44-.84-.69a1.87,1.87,0,0,0,1-2.24,1.7,1.7,0,0,0-1.66-1.31h-2.45a.58.58,0,0,0-.66.59c0,1.42,0,2.83,0,4.25,0,.5.25.67.74.65s.6-.34.6-.74C295,414,295,412.86,295,411.7Zm18.1,2.75a2.64,2.64,0,0,0,.51-1.25,2.75,2.75,0,0,0-2.82-2.89,2.75,2.75,0,0,0-.1,5.5c.7,0,1.4,0,2.1,0,.35,0,.7,0,.79-.44S313.61,414.6,313.09,414.45ZM293.71,396a2.09,2.09,0,0,0-.68.38.48.48,0,0,1-.69.08,1.3,1.3,0,0,0-.78-.14c-.44.06-.51.19-.34.59a1.93,1.93,0,0,0,.7.82,2.23,2.23,0,0,1,.78,1,5.79,5.79,0,0,0,1.38,2.16,1.51,1.51,0,0,0,.83.52c-.18-.3-.21-.46,0-.73a1.79,1.79,0,0,0,.53-1c-.15-.33-.44,0-.63-.19.69-.61-.23-.57-.32-.9a1.77,1.77,0,0,1,.14-.17c.16-.14.29-.3.21-.52s-.32-.19-.51-.23-.43.1-.64-.09c0-.42.29-.8.31-1.25a3.67,3.67,0,0,1,.25.48.58.58,0,0,0,.94.26,8.24,8.24,0,0,0,.94-1c.14-.18.29-.43.17-.65s-.39-.11-.6-.11a.22.22,0,0,1-.24-.11,2.73,2.73,0,0,0,.59-1.63c-.27-.05-.53,0-.67-.25a2.56,2.56,0,0,0,.37-1.23.46.46,0,0,0-.16-.45c-.17-.11-.28,0-.41.1s-.25.23-.46.18l-.11-.15c-.14-.19-.12-.57-.43-.54s-.34.4-.48.64,0,.62-.18.89c-.76-.23-.77-.19-.76.6,0,.38.39.57.4.93a1.29,1.29,0,0,1-.75.05c-.37,0-.48.18-.31.51a1.54,1.54,0,0,0,.87.71A1.38,1.38,0,0,1,293.71,396Zm7.1,4.26c-.07,0-.09-.08-.12-.08a5.53,5.53,0,0,0-3.9,1.06.52.52,0,0,0-.13.77,1.77,1.77,0,0,0,1,.73,11,11,0,0,0,4.88.32,3.61,3.61,0,0,0,1.69-.56.88.88,0,0,0,0-1.51,2.82,2.82,0,0,0-3.43.12.56.56,0,0,1-.18.07C300.44,400.78,300.78,400.54,300.81,400.22Zm14.34-11.36c-.22-.09-.14-.31-.21-.47s-.31-.41-.55-.32-.08.34-.05.52a.25.25,0,0,0,.06.14,2.35,2.35,0,0,1,.48,1.49c0,.18.11.41-.16.52-.16-.14-.1-.34-.14-.5s-.25-.25-.44-.21-.22.2-.15.38a3.75,3.75,0,0,0,.61.85,1.67,1.67,0,0,1,.27,1.4c-.28-.11-.38-.26-.37-.49s-.16-.37-.39-.32-.2.29-.14.47a2.72,2.72,0,0,0,.56.82,2.12,2.12,0,0,1,.3,2c-.33-.35-.63-.64-.26-1.09-.25-.15-.51-.32-.7-.1s-.06.45.07.65.36.51.55.76a2.63,2.63,0,0,1,.26,2c-.34-.32-.55-.55-.38-.93a.24.24,0,0,0-.13-.33.58.58,0,0,0-.52-.1c-.17.08-.1.26-.09.4a2.6,2.6,0,0,0,.69,1.19,1.81,1.81,0,0,1,.22,1.63c-.3-.34-.59-.59-.25-1a.55.55,0,0,0-.66-.18c-.23.13-.05.37,0,.54a7,7,0,0,0,.91,1.53c.23.37.57.27.73-.14a1.32,1.32,0,0,1,.54-.69,2.26,2.26,0,0,0,.57-.62c.1-.14.21-.28.11-.45s-.26-.14-.41-.11-.26.15-.28.35a.65.65,0,0,1-.59.66.32.32,0,0,1-.09-.36,3.2,3.2,0,0,1,.63-1.16,7.44,7.44,0,0,0,.83-.94c.09-.12.2-.31.06-.45a.5.5,0,0,0-.57-.05c-.16.05-.3.16-.25.37.11.41-.2.53-.48.76a2.45,2.45,0,0,1,0-1.08,3.24,3.24,0,0,1,1.13-1.71c.13-.12.27-.3.15-.49s-.3-.12-.47-.11-.25.16-.26.35-.16.44-.47.62c0-.6-.1-1.13.3-1.59.26-.3.51-.61.76-.92a.3.3,0,0,0,0-.41.39.39,0,0,0-.46-.1c-.15.06-.24.14-.19.34s-.13.5-.4.69a1.41,1.41,0,0,1-.06-.63,3.18,3.18,0,0,1,.8-1.63c.1-.16.34-.39,0-.53s-.4.08-.45.33-.08.33-.36.29a5,5,0,0,0-.05-.53,2.52,2.52,0,0,1,.56-1.55c.1-.15.24-.4,0-.51s-.45.05-.51.33S315.34,388.79,315.15,388.86Zm-10.5,26.95h2c.7,0,1-.41.66-1.05-.64-1.35-1.31-2.69-2-4a.7.7,0,0,0-1.29,0c-.66,1.36-1.34,2.71-2,4.08-.28.59,0,1,.64,1Zm17.87,0c.66,0,1.33,0,2,0s.95-.41.66-1q-1-2-2-4a.68.68,0,0,0-1.31,0c-.67,1.33-1.32,2.68-1.95,4-.3.65,0,1,.7,1ZM310.63,404.6a1.94,1.94,0,0,1-.93-.31,2.54,2.54,0,0,0-1.8-.07,1.05,1.05,0,0,0-.72.83c-.08.4.25.63.53.83a2.8,2.8,0,0,0,1,.41,10.08,10.08,0,0,0,3.42.09,5,5,0,0,0,2.1-.76.58.58,0,0,0,.2-.95,1.75,1.75,0,0,0-1-.67,10.86,10.86,0,0,0-3.31-.32c-.1,0-.24,0-.27.15C310.05,404.15,310.56,404.14,310.63,404.6Zm3.67,7.71h0c0,.45,0,.9,0,1.35a2.14,2.14,0,0,0,2,2.15c1.56.12,2.44-.42,2.72-1.72a14.56,14.56,0,0,0,.1-3.23.54.54,0,0,0-.59-.55c-.55,0-.75.18-.76.85s0,1.57,0,2.35a1,1,0,0,1-1,1,1,1,0,0,1-1-.91,9.24,9.24,0,0,1-.06-1.05c0-.56.06-1.13,0-1.69s-.36-.55-.75-.53a.56.56,0,0,0-.58.61Zm3.92-7.92a1.59,1.59,0,0,1,1.34.4c.17.17.36.32.54.07s-.07-.36-.26-.47-.28-.08-.19-.32a4,4,0,0,1,1.17.26c.17.08.37.12.48-.1s-.12-.29-.27-.38-.62-.07-.88-.42a2.92,2.92,0,0,1,1.32,0c.23,0,.54.13.58-.18s-.31-.23-.5-.3-.43.06-.59-.19a3.33,3.33,0,0,1,1.38-.2c.16,0,.32-.06.32-.25s-.17-.23-.33-.24a4,4,0,0,1-.92,0c0-.28.18-.31.33-.36s.59-.21.9-.3.27-.15.23-.33-.21-.16-.35-.13a1,1,0,0,1-.6,0c.11-.38.45-.45.73-.6s.41-.3.11-.46-.2-.31-.2-.53.24-.58-.13-.82c-.45.41-.22,1.11-.65,1.53-.17-.22-.08-.57-.42-.66-.43.43.27,1.07-.28,1.5a1.58,1.58,0,0,1-.14-.23c-.06-.18-.08-.47-.35-.38s-.1.32,0,.5a2.15,2.15,0,0,1,.09.44c0,.25.06.52-.24.7-.21-.31-.05-.74-.39-1-.33.13-.3.36-.23.62a1.21,1.21,0,0,1-.1,1.09c-.27-.22-.06-.61-.36-.77-.47.15-.28.54-.3.84,0,.52-.07.6-.48.67,0,0,0-.06,0-.09,0-.19.25-.47-.11-.53s-.35.21-.39.46a.69.69,0,0,1-.45.59c-.24-.26.19-.51,0-.75a.35.35,0,0,0-.43.25,1.34,1.34,0,0,1-1.5,1,.23.23,0,0,0-.25.19c0,.17.08.25.21.29a1,1,0,0,0,.44-.05,2.67,2.67,0,0,1,2.25.27.52.52,0,0,0,.72-.05C318.86,404.72,318.47,404.76,318.22,404.39ZM300.5,387.34a1.67,1.67,0,0,0,.05-1.46c-.05-.1,0-.19.05-.28a1.66,1.66,0,0,0,0-1.67c0-.11-.1-.21-.24-.21s-.24.13-.26.26,0,.36-.06.54.21.6.06,1a1.16,1.16,0,0,0-1.18,0,1,1,0,0,0,.89.59c.24,0,.33.13.38.37.09.52-.14.64-.61.61-.24,0-.62,0-.59.37s.36.41.66.37a5.59,5.59,0,0,0,.71-.21,3.45,3.45,0,0,0,.1,2.55s0,.13-.05.18a1.71,1.71,0,0,0-.19,1c0,.58.1,1.18.08,1.73s0,1.39,0,2.08a1.15,1.15,0,0,0,1.18,1.23,2.78,2.78,0,0,0,.69-.12c.18,0,.37-.13.38-.34s-.22-.27-.39-.32a1.76,1.76,0,0,0-.79-.05.82.82,0,0,1-.61,0,4.83,4.83,0,0,0,.05-1.52c0-.39.12-.62.56-.54s.59-.15.87-.27.15-.3,0-.4a1.3,1.3,0,0,0-.93-.12c-.17,0-.33.17-.54,0a7.58,7.58,0,0,0,0-1.43c0-.46.2-.65.65-.58a1.42,1.42,0,0,0,.68-.07c.15-.05.28-.12.28-.31a.38.38,0,0,0-.25-.34,1.46,1.46,0,0,0-1.07,0c-.14,0-.26.18-.42,0a1.76,1.76,0,0,0,.14-1.06c0-.86,0-.86.81-.91.22,0,.53,0,.56-.29s-.26-.34-.46-.45C301.25,387.05,300.94,387.34,300.5,387.34ZM286.87,407.9a5.35,5.35,0,0,0,3.67.47c1.29-.39,2.53-.73,3.81-.08,0,0,.07,0,.1,0a4.84,4.84,0,0,0,2.27-.17,5.72,5.72,0,0,1,3.47.11,3.21,3.21,0,0,0,1.87.06c.41-.08.37-.26.17-.51a1.77,1.77,0,0,0-2.19-.48,2.72,2.72,0,0,1-1.16.25l-1.89.06a2.17,2.17,0,0,1-1-.18,2.44,2.44,0,0,0-1.16-.23,14,14,0,0,1-1.45,0,3.55,3.55,0,0,0-2,.43,1.64,1.64,0,0,1-1.58.07,4,4,0,0,0-2.36-.16A.67.67,0,0,0,286.87,407.9Zm-.08-1.7a.89.89,0,0,0,.67.3,19.6,19.6,0,0,1,2.5.46,2.35,2.35,0,0,0,1.28.1,27.65,27.65,0,0,1,3.24-.43,2.81,2.81,0,0,1,1.29,0,3.41,3.41,0,0,0,1.68,0c.12,0,.24,0,.24-.2a.27.27,0,0,0-.18-.22,3.25,3.25,0,0,0-3.3-.08,1.82,1.82,0,0,1-1.58.07,3.62,3.62,0,0,0-1.2-.32c-1.35,0-2.69,0-4,0A.59.59,0,0,0,286.79,406.2Zm13.75-1.72c-.1-.19,0-.27.08-.36s0-.35-.18-.33a3,3,0,0,0-1.84.5c-.61.51-.54,1.11.19,1.44a4.76,4.76,0,0,0,2.84.26,1.79,1.79,0,0,0,1-.6.76.76,0,0,0-.36-1.27,1.58,1.58,0,0,0-.78,0C301.15,404.14,300.89,404.41,300.54,404.48Zm14.87,2a.45.45,0,0,0,.41.2,14.56,14.56,0,0,0,1.75,0,9.89,9.89,0,0,1,2.87-.17c.87.21,1.76.1,2.63.23a2.48,2.48,0,0,0,1.7-.52,1.35,1.35,0,0,0-1.41-.3,3.51,3.51,0,0,1-2.39.12,4.76,4.76,0,0,0-.9-.3,3.68,3.68,0,0,0-1.61-.25l-2.52.54C315.7,406.14,315.48,406.2,315.41,406.49ZM317,408a4.45,4.45,0,0,0,1.74.48,2,2,0,0,0,1.66-.28,1.14,1.14,0,0,1,1.24,0,2.5,2.5,0,0,0,2.39,0c.16-.07.4-.11.36-.35s-.26-.2-.44-.22a11.38,11.38,0,0,1-2.32-.33,1.43,1.43,0,0,0-1.06.15,2.79,2.79,0,0,1-2.37.39A.94.94,0,0,0,317,408Zm-11.82-1.75-.65-.49a1.06,1.06,0,0,0-.86-.19c-.36.08-.67.26-.71.66s.24.56.57.65c.11,0,.22.09.33.12a3.4,3.4,0,0,0,2.67-.14.63.63,0,0,0,.36-.65.68.68,0,0,0-.52-.6,2.44,2.44,0,0,0-.54-.09C305.21,405.43,305.11,405.53,305.17,406.2Zm6.77,2.14v0c.35,0,.7,0,1.05,0a6.83,6.83,0,0,0,2.06-.28c.19-.07.4-.17.34-.42s-.24-.25-.43-.27a5.3,5.3,0,0,0-1.82.18c-1,.29-2,.76-3-.11a.43.43,0,0,0-.7.19c-.13.32.11.49.38.59a2.14,2.14,0,0,0,.44.08Zm9.37-11.1c0-.1,0-.17,0-.23s.08-.49-.17-.58-.29.2-.37.38l0,0c-.73.1-.24.49-.17.8-.26.1-.5.26-.29.56a1.13,1.13,0,0,1,0,1.3.45.45,0,0,0,.1.65h.07c.45-.5.55-1.31,1.34-1.52.11,0,.1-.2.05-.31a.18.18,0,0,0-.3-.05c-.15.14-.27.17-.38-.09a2.59,2.59,0,0,1,.4-.41c.15-.09.3-.12.26-.34S321.5,397.27,321.31,397.24ZM305,405a2.39,2.39,0,0,0-.13-.24c-.18-.24-.35-.45-.06-.74s.49-.42.85-.12a2.45,2.45,0,0,0,.71.34.38.38,0,0,0,.49-.24c.1-.22-.12-.27-.26-.34a3.2,3.2,0,0,1-1.14-.7.31.31,0,0,0-.51,0,7,7,0,0,1-1.3,1.08c-.28.2-.32.44-.08.76.32-.26.56-.17.79.14A.45.45,0,0,0,305,405Zm-14.19-.33a.94.94,0,0,0-.88-.32,3.21,3.21,0,0,1-1.78-.3c-.42-.24-.81-.08-1.26-.06A2.77,2.77,0,0,0,290.82,404.66Zm33.7.15a4.93,4.93,0,0,0-2.33-.52.73.73,0,0,0-.62.27c-.2.24-.22.45.12.57a2.7,2.7,0,0,0,1.75.15C323.81,405.16,324.26,405.18,324.52,404.81Zm-18.33,2.72c-.39.13-.85-.07-.9.4a9.31,9.31,0,0,0,0,1.49c0,.25.16.31.37.28s.47.1.49-.19A10.9,10.9,0,0,0,306.19,407.53Zm-6,8.27a.63.63,0,0,0,.64-.66.6.6,0,0,0-.65-.64.58.58,0,0,0-.65.59A.64.64,0,0,0,300.17,415.8Zm22.76-12a1.15,1.15,0,0,0,.33,0c.3-.08.82,0,.83-.35s-.55-.36-.87-.46h-.1c-.22,0-.71.5-.66.66S322.77,403.77,322.93,403.78Zm-7.61,5.89c0-.25.06-.48.07-.71s0-.38-.23-.43a.42.42,0,0,0-.48.26,1.49,1.49,0,0,0-.13.86A1.43,1.43,0,0,0,315.32,409.67Zm-27.47-6.52a1.61,1.61,0,0,0,1,.36c.19,0,.49.09.5-.23a.47.47,0,0,0-.48-.53A1.52,1.52,0,0,0,287.85,403.15Z" transform="translate(-281 -371)"/><path class="cls-2" d="M308,392.19a.9.9,0,0,0,.25-.63,22.52,22.52,0,0,1,1.19-4.58c0-.06,0-.13.07-.19s.13-.43.41-.32.15.3.09.48c-.17.47-.36.93-.49,1.41a29.51,29.51,0,0,0-.87,4.36c0,.23-.19.44-.09.77.33-.33.36-.76.59-1.07,0-.06,0-.16.06-.23s.15-.36.36-.26.16.32.07.48a5.78,5.78,0,0,0-.39,1.22,4.55,4.55,0,0,0,.11,2.56c0,.12.07.23.1.34a.25.25,0,0,1-.13.34c-.17.07-.29,0-.35-.18-.15-.4-.29-.8-.47-1.29a1.17,1.17,0,0,0-.1.73c0,.16.13.41-.16.44s-.37-.15-.4-.41-.11-.72-.18-1.08a1.81,1.81,0,0,0-.13-.34,4,4,0,0,0-.09,1.19c0,.19.06.45-.24.46s-.32-.24-.33-.46a9.09,9.09,0,0,0-.09-1.46c-.24.28-.24.28-.26.82,0,.17,0,.33,0,.5s0,.42-.31.41-.29-.25-.3-.44,0-.5,0-.75.06-.33-.14-.46c-.24.26-.11.59-.17.89s0,.74-.4.72-.23-.46-.27-.73,0-.29-.09-.46c-.2.12-.2.3-.22.47a1.31,1.31,0,0,1-.15.52c-.08.13-.18.26-.35.23s-.21-.15-.25-.28-.05-.36-.19-.51c-.2.14-.16.34-.17.51s-.15.42-.42.37-.29-.27-.23-.47a4.92,4.92,0,0,0,.11-1.38,5.32,5.32,0,0,0-.74-2.36c-.12-.26-.3-.54,0-.86a7,7,0,0,1,1.28,2.48,3.57,3.57,0,0,0-.1-1.8,9.64,9.64,0,0,0-1.07-2.67.52.52,0,0,1,0-.75,9.84,9.84,0,0,1,1.15,2c.33.7.36,1.49.7,2.19a8.4,8.4,0,0,0-.56-3.3,14.53,14.53,0,0,0-2.15-3.92c-.11-.15-.19-.32,0-.45s.3.05.39.17a10,10,0,0,1,1.47,2.37c0,.1.07.23.24.26a1.5,1.5,0,0,0-.09-.67,19.46,19.46,0,0,0-1.74-3.4,1,1,0,0,1-.12-.23c-.06-.14-.12-.3,0-.4s.29,0,.36.18a26.3,26.3,0,0,1,1.65,3.1,23.3,23.3,0,0,1,1.51,5.73.7.7,0,0,0,.06.19s.05,0,.1.06c.14-.17.08-.37.08-.55a23.26,23.26,0,0,0-1-5.74,10.08,10.08,0,0,0-.68-1.4c-.49-1.15-1.07-2.25-1.56-3.4-.17-.42-.13-.91-.57-1.34.25,0,.33,0,.37,0a4.78,4.78,0,0,1,1.61,1.92,17.1,17.1,0,0,0,.85,1.91,2.72,2.72,0,0,1,.22,1.06,9.48,9.48,0,0,0,.59,2.62c.1.34,0,.76.4,1.16-.08-.95-.1-1.77-.23-2.58a21.25,21.25,0,0,0-2-6.15.45.45,0,0,1,.07-.61,22.2,22.2,0,0,1,1.9,4.19,7.87,7.87,0,0,0-.34-2.17,18.08,18.08,0,0,0-1.33-3.33.6.6,0,0,1,.06-.72,14.29,14.29,0,0,1,1.78,4.1,2.17,2.17,0,0,0,.16-1.3c-.06-.78,0-1.56-.06-2.34a16,16,0,0,1-.32-2.77c.07-.88.08-1.76.12-2.64a1.18,1.18,0,0,1,.1-.43.55.55,0,0,1,.59-.37.51.51,0,0,1,.42.5,3.93,3.93,0,0,1,0,.84,21,21,0,0,0-.07,2.75,2.61,2.61,0,0,1-.22,1.46,2,2,0,0,0-.11.94c0,1.18-.05,2.36-.07,3.54a.47.47,0,0,0,.12.38.66.66,0,0,0,.24-.53,24.68,24.68,0,0,1,1.12-4.5c0-.11.07-.22.12-.33s.12-.54.44-.43.09.4,0,.59a32.75,32.75,0,0,0-1.47,5.95,1.36,1.36,0,0,0,0,.71,18,18,0,0,0,.5-1.84c.3-.87.47-1.78.82-2.64.1-.23.21-.45.32-.67s.17-.23.32-.13a.22.22,0,0,1,.05.35,7.27,7.27,0,0,0-.94,2.55c-.43,1.49-.62,3-.91,4.55-.19,1-.13,2-.23,3a.85.85,0,0,0,.1.55,4.19,4.19,0,0,0,.26-1.41,19.79,19.79,0,0,1,.59-3.44c.14-.57,0-1.14.13-1.72a20.62,20.62,0,0,1,1.23-3.26c.18-.36.66-.56,1-.83a11.94,11.94,0,0,1-.29,1.27c-.38,1.16-.74,2.31-1.09,3.47-.18.59-.53,1.12-.68,1.74-.32,1.42-.37,2.87-.55,4.31,0,.06,0,.12.1.2a50.54,50.54,0,0,1,2.63-8.64c.34.25.21.5.14.71-.38,1.28-.8,2.54-1.16,3.82a33.32,33.32,0,0,0-1.22,6.26A.8.8,0,0,0,308,392.19Z" transform="translate(-281 -371)"/><path class="cls-2" d="M311.11,398.2a1.47,1.47,0,0,0-.49-1.59,1.68,1.68,0,0,1-.66-.85c0-.16-.15-.33,0-.47s.25,0,.37,0,.33.17.29.4c-.07.4.21.54.57.71a1.76,1.76,0,0,0-.5-1.61,3.71,3.71,0,0,1-.65-.93c-.06-.14-.2-.31,0-.46s.31,0,.46.06a2.44,2.44,0,0,1,.33.19c-.19.37-.12.65.3.79a1.29,1.29,0,0,0-.32-1.42,5.6,5.6,0,0,1-.77-1c-.07-.11-.17-.25,0-.36a.51.51,0,0,1,.48,0c.14,0,.25.13.19.29-.18.49.22.61.53.94a1.46,1.46,0,0,0-.28-1.43,4.4,4.4,0,0,1-.67-.93c-.09-.19-.33-.41-.05-.62s.5-.07.69.15c-.2.52-.1.77.46,1a2.22,2.22,0,0,0-.55-1.95,2.47,2.47,0,0,1-.52-.9.35.35,0,0,1,.14-.44.33.33,0,0,1,.37.06c.16.09.16.2.11.37-.12.42.19.63.46.86a2.45,2.45,0,0,0-.61-2.23,1.43,1.43,0,0,1-.44-.91c0-.13,0-.27.15-.33a.36.36,0,0,1,.37.06.25.25,0,0,1,.07.34c-.15.37.07.57.43.78a2.14,2.14,0,0,0-.24-1.44,4.1,4.1,0,0,1-.54-1.38c0-.22-.06-.45.13-.6s.29,0,.4.12.45.43.27.68c-.31.44,0,.65.19,1,.29-.32.57-.52.28-.93-.15-.22.24-.95.49-1s.28.14.3.31a2.35,2.35,0,0,1-.34,1.53,3.77,3.77,0,0,0-.4.92.73.73,0,0,0,.05.64c.29-.17.55-.32.39-.69-.07-.18,0-.29.13-.36s.31-.15.47,0a.3.3,0,0,1,.05.41c-.26.36-.38.79-.67,1.14a2.51,2.51,0,0,0-.36,1.95c.6-.33.74-.63.54-1.08a.54.54,0,0,1,.53-.19c.29,0,.38.15.25.44a5.55,5.55,0,0,1-.94,1.28,1.61,1.61,0,0,0-.42,1.46c.34-.26.65-.45.7-.85a.34.34,0,0,1,.3-.34.27.27,0,0,1,.27.09.36.36,0,0,1-.05.46,7.51,7.51,0,0,1-.77.92,2.19,2.19,0,0,0-.54,1.66c.68-.12,1-.62.66-1.06,0-.13.15-.18.26-.23s.41-.14.57,0,0,.38-.09.54a2.54,2.54,0,0,1-.63.72,1.58,1.58,0,0,0-.69,1.8c.31-.31.72-.42.69-.93,0-.24.17-.3.36-.32s.31-.09.41.07,0,.31-.08.45a4.5,4.5,0,0,1-.92,1,1.41,1.41,0,0,0-.36,1.55c.26-.37.81-.4.77-1,0-.28.32-.24.52-.21s.27.24.17.42a3.08,3.08,0,0,1-1,1.06,1.19,1.19,0,0,0-.55,1.43c.32-.08.57-.22.63-.58a.61.61,0,0,1,.7-.43.26.26,0,0,1,.15.4,1.91,1.91,0,0,1-.56.7,2.26,2.26,0,0,0-.88.93.38.38,0,0,1-.69.08c-.32-.65-.91-1.1-1.28-1.71a.28.28,0,0,1,0-.27c.38,0,.83-.22.78.5C310.71,398.05,311,398.06,311.11,398.2Z" transform="translate(-281 -371)"/><path class="cls-2" d="M303.82,396.8c-.15.47-.53.79-.47,1.31.29-.08.37-.36.55-.52a2.66,2.66,0,0,1,2.64-.78,17.91,17.91,0,0,1,2,.61,1.89,1.89,0,0,1,1,.75.84.84,0,0,1-.52,1.39,10.88,10.88,0,0,1-2.39.47,12.94,12.94,0,0,1-5-.15,5.24,5.24,0,0,1-2.09-.89c-.47-.4-.5-.91,0-1.18a9.4,9.4,0,0,1,4-1.07A1.35,1.35,0,0,1,303.82,396.8Z" transform="translate(-281 -371)"/><path class="cls-2" d="M310.89,400.06a5.76,5.76,0,0,1,4.33,1.08c.71.51.56,1.26-.27,1.55a9.36,9.36,0,0,1-2.93.52,37.57,37.57,0,0,1-4.38-.22,3.44,3.44,0,0,1-1.58-.58.9.9,0,0,1,.1-1.61,6.3,6.3,0,0,1,3.85-.47,3.53,3.53,0,0,1,1.41.7c.11.08.19.2.39.15C311.72,400.68,311.26,400.47,310.89,400.06Z" transform="translate(-281 -371)"/><path class="cls-2" d="M319.79,400.26c-.27.76-1.19.32-1.58.87.16.11.3.05.44,0s.54-.16.56.17-.27.4-.57.37a4.21,4.21,0,0,0-.5,0c-.14,0-.27,0-.28.22s.3.06.45.09.29,0,.31.2-.13.25-.28.31a.23.23,0,0,1-.14,0c-.73-.25-1.16.2-1.58.67a3.25,3.25,0,0,1-1.49.75c-.19.06-.43.06-.48-.2s.19-.23.34-.28.29-.07.43-.12c1.09-.38,1.33-1.21.64-2.23-.18-.26-.4-.52-.08-.85.53.2.52.85.93,1.15a1,1,0,0,0-.38-1.31c-.21-.18-.35-.36-.14-.58s.4,0,.54.19.32.4.51.65a1,1,0,0,0-.15-.94.83.83,0,0,0-.19-.23c-.18-.21-.48-.49-.18-.71s.41.18.55.4.19.21.35.39c0-.63,0-1.11-.57-1.4a.75.75,0,0,1-.2-.15c-.18-.17-.1-.34,0-.48s.26-.05.38.08.25.35.53.4a1.41,1.41,0,0,0-.57-1.1c-.2-.15-.43-.27-.23-.52s.33.05.49.12a1.38,1.38,0,0,1,.25.19c.06-.45,0-.58-.3-.81a2.48,2.48,0,0,1-.3-.25.28.28,0,0,1,0-.41c.12-.12.24,0,.35.06s.12.21.31.15a1.72,1.72,0,0,0-.29-.76c-.24-.32-.22-.53.3-.61-.4-.52,0-.9.18-1.32a.27.27,0,0,1,.32-.17.24.24,0,0,1,.19.26v.8c.69,0,.7,0,.33,1,.05.1.12.07.2,0s.32,0,.41.17a.32.32,0,0,1-.08.45c-.29.21-.41.55-.64.82s-.1.22,0,.35c.28-.17.49-.46.86-.55.22.37,0,.6-.24.75a2.27,2.27,0,0,0-.67.71c-.08.11,0,.19.07.26s.28-.3.5-.35.45-.19.54.12-.1.42-.34.46a1.13,1.13,0,0,0-.87.77c.33.05.52-.17.76-.25s.34-.12.43.09a.31.31,0,0,1-.19.41,7.36,7.36,0,0,0-.89.44c-.17.11-.28.22-.27.41.2.16.29,0,.41-.08a4.58,4.58,0,0,1,.46-.2c.2,0,.45,0,.48.21s-.22.26-.4.28a1.55,1.55,0,0,0-1.15.75C318.93,400.35,319.31,400,319.79,400.26Z" transform="translate(-281 -371)"/><path class="cls-2" d="M295.87,398.11a1.54,1.54,0,0,1,1.48-.5c.23,0,.55.24.59-.24s-.25-.41-.55-.43a2,2,0,0,1-1.23-.31c.21-.53.31-.55,1.72-.39.1-.36,0-.74.13-1.15a4.85,4.85,0,0,1-1.28.12c-.25,0-.44-.12-.47-.36s.21-.36.42-.41a1.13,1.13,0,0,1,.45,0c.43.05.64-.07.63-.56s-.2-.67-.67-.61a2.28,2.28,0,0,1-.45,0c-.22,0-.44-.1-.43-.38s.25-.33.46-.38a2.85,2.85,0,0,1,1.1.1,7.87,7.87,0,0,1,0-1.68c-.42,0-.77.24-1.15.1-.17-.07-.38-.08-.41-.31s.2-.32.38-.4a1.78,1.78,0,0,1,.69-.05c.24,0,.4,0,.38-.32s0-.49-.35-.48a.75.75,0,0,1-.3,0c-.16-.07-.4-.08-.38-.37s.25-.22.44-.22l.56-.06c0-.51-.31-1.05.24-1.45a1.07,1.07,0,0,1,.36.94c0,.38.11.53.48.49a1.5,1.5,0,0,1,.3,0c.21,0,.5,0,.48.32s-.28.3-.49.35-.54-.14-.84-.2a5.47,5.47,0,0,1-.12,1.3.45.45,0,0,0,.44-.09.85.85,0,0,1,.71-.11c.25.07.56.11.52.42s-.32.35-.57.4h-.05c-.27,0-.61-.16-.8.11s0,.68,0,1,.21.3.43.26a1.82,1.82,0,0,1,1,.1c.13,0,.27.09.27.25s-.13.23-.25.29c-.28.15-.63.15-1.56,0a2,2,0,0,1,.15,1.5,1.92,1.92,0,0,1,1.2-.17c.22.06.45.13.45.38s-.26.26-.43.35a.68.68,0,0,1-.29,0c-.79,0-.8,0-.65.91.61,0,1.29-.24,1.79.41-.64.69-1.38.42-2.17.21.65.51.18,1.15.34,1.7a2.23,2.23,0,0,0,.47,1.13,2.43,2.43,0,0,1-3.06.1,1.51,1.51,0,0,1,1.38-.46c.7.06.69.09.87-.6a2.06,2.06,0,0,0,0-.36A2.38,2.38,0,0,1,295.87,398.11Z" transform="translate(-281 -371)"/><path class="cls-3" d="M289.42,410.32h1.05a2.25,2.25,0,0,1,2.44,2.06,2.75,2.75,0,0,1-.94,3,2.29,2.29,0,0,1-1.31.42c-.82,0-1.63,0-2.45,0-.47,0-.73-.19-.74-.66-.05-1.42-.05-2.83,0-4.25a.56.56,0,0,1,.65-.59c.43,0,.86,0,1.3,0Zm-.62,1.41v1.36c0,1.36,0,1.36,1.35,1.35,1.18,0,1.71-.73,1.41-1.87a1,1,0,0,0-.88-.85A8.46,8.46,0,0,0,288.8,411.73Z" transform="translate(-281 -371)"/><path class="cls-2" d="M292.17,400.19c1,.08,1,.08,1.07.71,1-.19.55.75.89,1.12.33,0,.67-.29,1,0,0,0,.12,0,.14,0,.42-.41.64,0,.89.22s.4.36.59.54.2.22.08.35-.26.05-.36,0a4.27,4.27,0,0,1-.44-.41c-.52.62-1.07.52-1.45-.25-.83.34-.83.34-1.08-.84-.3.5-.58.34-.9.05s0-.56.19-.84c-.26-.14-.46,0-.66,0s-.41.06-.53-.17-.23-.42-.07-.65a1.22,1.22,0,0,0,.23-.7c-.23,0-.32.13-.42.26s-.15.2-.28.16-.14-.21-.15-.33c0-.3.17-.61,0-1a.89.89,0,0,0-.28.92,4.43,4.43,0,0,0,1.61,2.61,6.9,6.9,0,0,0,2.59,1.38c.54.14,1.1.14,1.66.23.21,0,.44,0,.53.23.17,0,.24-.11.34-.17a.23.23,0,0,1,.31,0,.21.21,0,0,1,0,.31,7.29,7.29,0,0,1-.73.74c-.3.26-.49.15-.66-.37-.34.09-.55.42-.9.49-.53.1-.46-.36-.58-.6-.22-.07-.33.1-.47.16a2,2,0,0,1-.52.17c-.7.1-.84-.06-.69-.78-.36-.05-.64.29-1,.21-.54-.12-.12-.58-.32-.85-.19-.1-.4,0-.61,0s-.37.11-.51-.06,0-.35.05-.52a.59.59,0,0,0,.1-.4c-.33-.3-1,.09-1.18-.56,0-.26.36-.42.39-.73-.22-.26-.58-.29-.78-.55s-.38-.26-.3-.52.3-.22.5-.26a.67.67,0,0,0,.18-.07c0-.35-.29-.57-.29-.9s-.1-.48.14-.64.45,0,.65.12a1.41,1.41,0,0,1,.23.18c.94-.51.94-.51,1.12.48.24,0,.51-.33.73,0a1,1,0,0,1,.1,1A.84.84,0,0,0,292.17,400.19Zm-2.05,1.26a.71.71,0,0,0,.9,0,.17.17,0,0,0-.07-.31C290.64,401.09,290.29,401,290.12,401.45Zm1.09,1.24c.39-.14.69-.2.78-.6C291.46,401.89,291.37,402.25,291.21,402.69Zm2.42,1.3c.42.14.62-.17.89-.36C294.12,403.33,293.88,403.43,293.63,404Zm-1.28-.66a.64.64,0,0,0,.71-.38C292.64,402.66,292.52,402.94,292.35,403.33ZM289.64,400c.22.25.39.42.67.28a.13.13,0,0,0,.06-.21C290.19,399.85,290,399.86,289.64,400Zm.17-1.43a.41.41,0,0,0,.35.53C290.15,398.85,290.15,398.65,289.81,398.58Zm5.93,5.33c-.32-.09-.45,0-.44.36C295.56,404.23,295.73,404.18,295.74,403.91Z" transform="translate(-281 -371)"/><path class="cls-3" d="M295,411.7c0,1.16,0,2.26,0,3.36,0,.4-.11.72-.6.74s-.73-.15-.74-.65c0-1.42,0-2.83,0-4.25a.58.58,0,0,1,.66-.59h2.45a1.7,1.7,0,0,1,1.66,1.31,1.87,1.87,0,0,1-1,2.24c.31.25.59.45.84.69a.7.7,0,1,1-.94,1,13,13,0,0,1-1.81-2.24c-.29-.46,0-.9.54-.94.25,0,.5,0,.74,0s.37-.12.36-.35a.35.35,0,0,0-.38-.32Z" transform="translate(-281 -371)"/><path class="cls-3" d="M313.09,414.45c.52.15.57.53.48.93s-.44.44-.79.44c-.7,0-1.4,0-2.1,0a2.75,2.75,0,0,1,.1-5.5,2.75,2.75,0,0,1,2.82,2.89A2.64,2.64,0,0,1,313.09,414.45Zm-.87-1.38a1.31,1.31,0,0,0-1.38-1.38,1.38,1.38,0,1,0,0,2.75A1.32,1.32,0,0,0,312.22,413.07Z" transform="translate(-281 -371)"/><path class="cls-2" d="M293.71,396a1.38,1.38,0,0,0-.71-.43,1.54,1.54,0,0,1-.87-.71c-.17-.33-.06-.51.31-.51a1.29,1.29,0,0,0,.75-.05c0-.36-.39-.55-.4-.93,0-.79,0-.83.76-.6.19-.27,0-.62.18-.89s.16-.62.48-.64.29.35.43.54l.11.15c.21.05.31-.11.46-.18s.24-.21.41-.1a.46.46,0,0,1,.16.45,2.56,2.56,0,0,1-.37,1.23c.14.26.4.2.67.25a2.73,2.73,0,0,1-.59,1.63.22.22,0,0,0,.24.11c.21,0,.48-.1.6.11s0,.47-.17.65a8.24,8.24,0,0,1-.94,1,.58.58,0,0,1-.94-.26,3.67,3.67,0,0,0-.25-.48c0,.45-.26.83-.31,1.25.21.19.43.05.64.09s.43,0,.51.23-.05.38-.21.52a1.77,1.77,0,0,0-.14.17c.09.33,1,.29.32.9.19.17.48-.14.63.19a1.79,1.79,0,0,1-.53,1c-.24.27-.21.43,0,.73a1.51,1.51,0,0,1-.83-.52,5.79,5.79,0,0,1-1.38-2.16,2.23,2.23,0,0,0-.78-1,1.93,1.93,0,0,1-.7-.82c-.17-.4-.1-.53.34-.59a1.3,1.3,0,0,1,.78.14.48.48,0,0,0,.69-.08A2.09,2.09,0,0,1,293.71,396Zm1.09-1.71c-.12-.68.53-1.17.45-1.85-1,.32-1.13,3.82-.43,4.72.06-.59.69-.78.82-1.3-.14-.16-.24-.09-.39,0-.35.22-.45.13-.46-.29a1.35,1.35,0,0,1,.39-.79c.14-.17.33-.34.16-.62C295.16,394.16,295,394.38,294.8,394.25Zm-.7,3.87c-.79,0-.89-.14-.68-.89,0-.18.15-.34,0-.55-1,1-.12,3,1.16,4.15-.06-.25,0-.5-.16-.61-.37-.33-.48-.65-.08-1C293.6,398.9,293.6,398.9,294.1,398.12Zm-.15-4c.09-.51-.07-.71-.63-.79C293.35,393.75,293.44,394.06,294,394.14Zm-.92.78a1,1,0,0,0,.66.41c.12,0,.24,0,.26-.15a.19.19,0,0,0-.2-.23A1.9,1.9,0,0,0,293,394.92Zm1.16-2.93a.72.72,0,0,0,0,.95A.7.7,0,0,0,294.19,392Zm-2.33,4.75c.15.6.34.72.79.58C292.54,397,292.24,396.86,291.86,396.74Z" transform="translate(-281 -371)"/><path class="cls-2" d="M300.81,400.22c0,.32-.37.56-.16.92a.56.56,0,0,0,.18-.07,2.82,2.82,0,0,1,3.43-.12.88.88,0,0,1,0,1.51,3.61,3.61,0,0,1-1.69.56,11,11,0,0,1-4.88-.32,1.77,1.77,0,0,1-1-.73.52.52,0,0,1,.13-.77,5.53,5.53,0,0,1,3.9-1.06S300.74,400.18,300.81,400.22Z" transform="translate(-281 -371)"/><path class="cls-2" d="M315.15,388.86c.19-.07.21-.24.24-.4s.26-.43.51-.33.13.36,0,.51a2.52,2.52,0,0,0-.56,1.55,5,5,0,0,1,.05.53c.28,0,.32-.13.36-.29s.21-.44.45-.33.08.37,0,.53a3.18,3.18,0,0,0-.8,1.63,1.41,1.41,0,0,0,.06.63c.27-.19.47-.37.4-.69s0-.28.19-.34a.39.39,0,0,1,.46.1.3.3,0,0,1,0,.41c-.25.31-.5.62-.76.92-.4.46-.29,1-.3,1.59.31-.18.46-.36.47-.62s0-.34.26-.35.36-.05.47.11,0,.37-.15.49a3.24,3.24,0,0,0-1.13,1.71,2.45,2.45,0,0,0,0,1.08c.28-.23.59-.35.48-.76-.05-.21.09-.32.25-.37a.5.5,0,0,1,.57.05c.14.14,0,.33-.06.45a7.44,7.44,0,0,1-.83.94,3.2,3.2,0,0,0-.63,1.16.32.32,0,0,0,.09.36.65.65,0,0,0,.59-.66c0-.2.1-.32.28-.35s.32-.05.41.11,0,.31-.11.45a2.26,2.26,0,0,1-.57.62,1.32,1.32,0,0,0-.54.69c-.16.41-.5.51-.73.14a7,7,0,0,1-.91-1.53c-.06-.17-.24-.41,0-.54a.55.55,0,0,1,.66.18c-.34.39-.05.64.25,1a1.81,1.81,0,0,0-.22-1.63,2.6,2.6,0,0,1-.69-1.19c0-.14-.08-.32.09-.4a.58.58,0,0,1,.52.1.24.24,0,0,1,.13.33c-.17.38,0,.61.38.93a2.63,2.63,0,0,0-.26-2c-.19-.25-.38-.5-.55-.76s-.24-.47-.07-.65.45-.05.7.1c-.37.45-.07.74.26,1.09a2.12,2.12,0,0,0-.3-2,2.72,2.72,0,0,1-.56-.82c-.06-.18-.17-.41.14-.47s.4,0,.39.32.09.38.37.49a1.67,1.67,0,0,0-.27-1.4,3.75,3.75,0,0,1-.61-.85c-.07-.18-.07-.33.15-.38s.39,0,.44.21,0,.36.14.5c.27-.11.18-.34.16-.52a2.35,2.35,0,0,0-.48-1.49.25.25,0,0,1-.06-.14c0-.18-.22-.42.05-.52s.44.1.55.32S314.93,388.77,315.15,388.86Z" transform="translate(-281 -371)"/><path class="cls-3" d="M304.65,415.81h-2c-.65,0-.92-.41-.64-1,.64-1.37,1.32-2.72,2-4.08a.7.7,0,0,1,1.29,0c.66,1.34,1.33,2.68,2,4,.31.64,0,1-.66,1.05Zm0-3.28a9.8,9.8,0,0,0-.91,1.88h1.82A17,17,0,0,0,304.65,412.53Z" transform="translate(-281 -371)"/><path class="cls-3" d="M322.52,415.82h-1.9c-.73,0-1-.38-.7-1,.63-1.35,1.28-2.7,1.95-4a.68.68,0,0,1,1.31,0q1,2,2,4c.29.61,0,1-.66,1S323.18,415.82,322.52,415.82Zm1-1.4-.91-1.88a9.17,9.17,0,0,0-.94,1.88Z" transform="translate(-281 -371)"/><path class="cls-2" d="M310.63,404.6c-.07-.46-.58-.45-.74-.77,0-.15.17-.15.27-.15a10.86,10.86,0,0,1,3.31.32,1.75,1.75,0,0,1,1,.67.58.58,0,0,1-.2.95,5,5,0,0,1-2.1.76,10.08,10.08,0,0,1-3.42-.09,2.8,2.8,0,0,1-1-.41c-.28-.2-.61-.43-.53-.83a1.05,1.05,0,0,1,.72-.83,2.54,2.54,0,0,1,1.8.07A1.94,1.94,0,0,0,310.63,404.6Z" transform="translate(-281 -371)"/><path class="cls-3" d="M314.3,412.31v-1.4a.56.56,0,0,1,.58-.61c.39,0,.68.07.75.53s0,1.13,0,1.69a9.24,9.24,0,0,0,.06,1.05,1,1,0,0,0,1,.91,1,1,0,0,0,1-1c0-.78,0-1.56,0-2.35s.21-.87.76-.85a.54.54,0,0,1,.59.55,14.56,14.56,0,0,1-.1,3.23c-.28,1.3-1.16,1.84-2.72,1.72a2.14,2.14,0,0,1-2-2.15c0-.45,0-.9,0-1.35Z" transform="translate(-281 -371)"/><path class="cls-2" d="M318.22,404.39c.25.37.64.33.77.66a.52.52,0,0,1-.72.05,2.67,2.67,0,0,0-2.25-.27,1,1,0,0,1-.44.05c-.13,0-.25-.12-.21-.29a.23.23,0,0,1,.25-.19,1.34,1.34,0,0,0,1.5-1,.35.35,0,0,1,.43-.25c.2.24-.23.49,0,.75a.69.69,0,0,0,.45-.59c0-.25.09-.52.39-.46s.1.34.11.53c0,0,0,.06,0,.09.41-.07.45-.15.48-.67,0-.3-.17-.69.3-.84.3.16.09.55.36.77a1.21,1.21,0,0,0,.1-1.09c-.07-.26-.1-.49.23-.62.34.23.18.66.39,1,.3-.18.26-.45.24-.7a2.15,2.15,0,0,0-.09-.44c-.05-.18-.24-.41,0-.5s.29.2.35.38a1.58,1.58,0,0,0,.14.23c.55-.43-.15-1.07.28-1.5.34.09.25.44.42.66.43-.42.2-1.12.65-1.53.37.24.12.56.13.82s-.07.38.2.53.13.34-.11.46-.62.22-.73.6a1,1,0,0,0,.6,0c.14,0,.31-.09.35.13s-.07.28-.23.33-.61.19-.9.3-.34.08-.33.36a4,4,0,0,0,.92,0c.16,0,.32.05.33.24s-.16.23-.32.25a3.33,3.33,0,0,0-1.38.2c.16.25.41.13.59.19s.53,0,.5.3-.35.22-.58.18a2.92,2.92,0,0,0-1.32,0c.26.35.63.27.88.42s.4.12.27.38-.31.18-.48.1a4,4,0,0,0-1.17-.26c-.09.24.08.26.19.32s.45.21.26.47-.37.1-.54-.07A1.59,1.59,0,0,0,318.22,404.39Z" transform="translate(-281 -371)"/><path class="cls-2" d="M300.5,387.34c.44,0,.75-.29,1.11-.1.2.11.49.18.46.45s-.34.28-.56.29c-.84,0-.83,0-.81.91a1.76,1.76,0,0,1-.14,1.06c.16.15.28,0,.42,0a1.46,1.46,0,0,1,1.07,0,.38.38,0,0,1,.25.34c0,.19-.13.26-.28.31a1.42,1.42,0,0,1-.68.07c-.45-.07-.64.12-.65.58a7.58,7.58,0,0,1,0,1.43c.21.14.37,0,.54,0a1.3,1.3,0,0,1,.93.12c.17.1.29.28,0,.4s-.53.33-.87.27-.56.15-.56.54a4.83,4.83,0,0,1-.05,1.52.82.82,0,0,0,.61,0,1.76,1.76,0,0,1,.79.05c.17.05.4.08.39.32s-.2.3-.38.34a2.78,2.78,0,0,1-.69.12,1.15,1.15,0,0,1-1.18-1.23c0-.69,0-1.39,0-2.08s-.07-1.15-.08-1.73a1.71,1.71,0,0,1,.19-1c0-.05.07-.14.05-.18a3.45,3.45,0,0,1-.1-2.55,5.59,5.59,0,0,1-.71.21c-.3,0-.63,0-.66-.37s.35-.38.59-.37c.47,0,.7-.09.61-.61,0-.24-.14-.37-.38-.37a1,1,0,0,1-.89-.59,1.16,1.16,0,0,1,1.18,0c.15-.38-.11-.67-.06-1s0-.36.06-.54.09-.26.26-.26.2.1.24.21a1.66,1.66,0,0,1,0,1.67c-.05.09-.1.18-.05.28A1.67,1.67,0,0,1,300.5,387.34Z" transform="translate(-281 -371)"/><path class="cls-3" d="M286.87,407.9a.67.67,0,0,1,.58-.33,4,4,0,0,1,2.36.16,1.64,1.64,0,0,0,1.58-.07,3.55,3.55,0,0,1,2-.43,14,14,0,0,0,1.45,0,2.44,2.44,0,0,1,1.16.23,2.17,2.17,0,0,0,1,.18l1.89-.06a2.72,2.72,0,0,0,1.16-.25,1.77,1.77,0,0,1,2.19.48c.2.25.24.43-.17.51a3.21,3.21,0,0,1-1.87-.06,5.72,5.72,0,0,0-3.47-.11,4.84,4.84,0,0,1-2.27.17s-.07,0-.1,0c-1.28-.65-2.52-.31-3.81.08A5.35,5.35,0,0,1,286.87,407.9Z" transform="translate(-281 -371)"/><path class="cls-3" d="M286.79,406.2a.59.59,0,0,1,.6-.3c1.35,0,2.69,0,4,0a3.62,3.62,0,0,1,1.2.32,1.82,1.82,0,0,0,1.58-.07,3.25,3.25,0,0,1,3.3.08.27.27,0,0,1,.18.22c0,.16-.12.18-.24.2a3.41,3.41,0,0,1-1.68,0,2.81,2.81,0,0,0-1.29,0,27.65,27.65,0,0,0-3.24.43A2.35,2.35,0,0,1,290,407a19.6,19.6,0,0,0-2.5-.46A.89.89,0,0,1,286.79,406.2Z" transform="translate(-281 -371)"/><path class="cls-2" d="M300.54,404.48c.35-.07.61-.34,1-.4a1.58,1.58,0,0,1,.78,0,.76.76,0,0,1,.36,1.27,1.79,1.79,0,0,1-1,.6,4.76,4.76,0,0,1-2.84-.26c-.73-.33-.8-.93-.19-1.44a3,3,0,0,1,1.84-.5c.21,0,.31.12.18.33S300.44,404.29,300.54,404.48Z" transform="translate(-281 -371)"/><path class="cls-3" d="M315.41,406.49c.07-.29.29-.35.53-.41l2.52-.54a3.68,3.68,0,0,1,1.61.25,4.76,4.76,0,0,1,.9.3,3.51,3.51,0,0,0,2.39-.12,1.35,1.35,0,0,1,1.41.3,2.48,2.48,0,0,1-1.7.52c-.87-.13-1.76,0-2.63-.23a9.89,9.89,0,0,0-2.87.17,14.56,14.56,0,0,1-1.75,0A.45.45,0,0,1,315.41,406.49Z" transform="translate(-281 -371)"/><path class="cls-3" d="M317,408a.94.94,0,0,1,1.2-.2,2.79,2.79,0,0,0,2.37-.39,1.43,1.43,0,0,1,1.06-.15,11.38,11.38,0,0,0,2.32.33c.18,0,.41,0,.44.22s-.2.28-.36.35a2.5,2.5,0,0,1-2.39,0,1.14,1.14,0,0,0-1.24,0,2,2,0,0,1-1.66.28A4.45,4.45,0,0,1,317,408Z" transform="translate(-281 -371)"/><path class="cls-2" d="M305.17,406.2c-.06-.67,0-.77.65-.73a2.44,2.44,0,0,1,.54.09.68.68,0,0,1,.52.6.63.63,0,0,1-.36.65,3.4,3.4,0,0,1-2.67.14c-.11,0-.22-.08-.33-.12-.33-.09-.61-.26-.57-.65s.35-.58.71-.66a1.06,1.06,0,0,1,.86.19Z" transform="translate(-281 -371)"/><path class="cls-3" d="M311.94,408.34h-1.69a2.14,2.14,0,0,1-.44-.08c-.27-.1-.51-.27-.38-.59a.43.43,0,0,1,.7-.19c1,.87,2,.4,3,.11a5.3,5.3,0,0,1,1.82-.18c.19,0,.39.06.43.27s-.15.35-.34.42a6.83,6.83,0,0,1-2.06.28c-.35,0-.7,0-1.05,0Z" transform="translate(-281 -371)"/><path class="cls-2" d="M321.31,397.24c.19,0,.42-.09.47.19s-.11.25-.26.34a2.59,2.59,0,0,0-.4.41c.11.26.23.23.38.09a.18.18,0,0,1,.3.05c.05.11.06.29-.05.31-.79.21-.89,1-1.34,1.52h-.07a.45.45,0,0,1-.1-.65,1.13,1.13,0,0,0,0-1.3c-.21-.3,0-.46.29-.56-.07-.31-.56-.7.17-.8l0,0c.08-.18,0-.5.37-.38s.11.38.17.58S321.29,397.14,321.31,397.24Z" transform="translate(-281 -371)"/><path class="cls-2" d="M305,405a.45.45,0,0,1-.64,0c-.23-.31-.47-.4-.79-.14-.24-.32-.2-.56.08-.76A7,7,0,0,0,305,403a.31.31,0,0,1,.51,0,3.2,3.2,0,0,0,1.14.7c.14.07.36.12.26.34a.38.38,0,0,1-.49.24,2.45,2.45,0,0,1-.71-.34c-.36-.3-.59-.14-.85.12s-.12.5.06.74A2.39,2.39,0,0,1,305,405Z" transform="translate(-281 -371)"/><path class="cls-3" d="M290.82,404.66a2.77,2.77,0,0,1-3.92-.68c.45,0,.84-.18,1.26.06a3.21,3.21,0,0,0,1.78.3A.94.94,0,0,1,290.82,404.66Z" transform="translate(-281 -371)"/><path class="cls-3" d="M324.52,404.81c-.26.37-.71.35-1.08.47a2.7,2.7,0,0,1-1.75-.15c-.34-.12-.32-.33-.12-.57a.73.73,0,0,1,.62-.27A4.93,4.93,0,0,1,324.52,404.81Z" transform="translate(-281 -371)"/><path class="cls-2" d="M306.19,407.53a10.9,10.9,0,0,1,0,2c0,.29-.31.17-.49.19s-.37,0-.37-.28a9.31,9.31,0,0,1,0-1.49C305.34,407.46,305.8,407.66,306.19,407.53Z" transform="translate(-281 -371)"/><path class="cls-3" d="M300.17,415.8a.64.64,0,0,1-.66-.71.58.58,0,0,1,.65-.59.6.6,0,0,1,.65.64A.63.63,0,0,1,300.17,415.8Z" transform="translate(-281 -371)"/><path class="cls-3" d="M322.93,403.78c-.16,0-.39.1-.47-.18s.44-.64.66-.66h.1c.32.1.87,0,.87.46s-.53.27-.83.35A1.15,1.15,0,0,1,322.93,403.78Z" transform="translate(-281 -371)"/><path class="cls-2" d="M315.32,409.67a1.43,1.43,0,0,1-.77,0,1.49,1.49,0,0,1,.13-.86.42.42,0,0,1,.48-.26c.23.05.25.24.23.43S315.35,409.42,315.32,409.67Z" transform="translate(-281 -371)"/><path class="cls-3" d="M287.85,403.15a1.52,1.52,0,0,1,1-.4.47.47,0,0,1,.48.53c0,.32-.31.25-.5.23A1.61,1.61,0,0,1,287.85,403.15Z" transform="translate(-281 -371)"/><path class="cls-1" d="M288.8,411.73a8.46,8.46,0,0,1,1.88,0,1,1,0,0,1,.88.85c.3,1.14-.23,1.87-1.41,1.87-1.35,0-1.35,0-1.35-1.35Z" transform="translate(-281 -371)"/><path class="cls-1" d="M290.12,401.45c.17-.46.52-.36.83-.28a.17.17,0,0,1,.07.31A.71.71,0,0,1,290.12,401.45Z" transform="translate(-281 -371)"/><path class="cls-1" d="M291.21,402.69c.16-.44.25-.8.78-.6C291.9,402.49,291.6,402.55,291.21,402.69Z" transform="translate(-281 -371)"/><path class="cls-1" d="M293.63,404c.25-.56.49-.66.89-.36C294.25,403.82,294.05,404.13,293.63,404Z" transform="translate(-281 -371)"/><path class="cls-1" d="M292.35,403.33c.17-.39.29-.67.71-.38A.64.64,0,0,1,292.35,403.33Z" transform="translate(-281 -371)"/><path class="cls-1" d="M289.64,400c.33-.15.55-.16.73.07a.13.13,0,0,1-.06.21C290,400.43,289.86,400.26,289.64,400Z" transform="translate(-281 -371)"/><path class="cls-1" d="M289.81,398.58c.34.07.34.27.35.53A.41.41,0,0,1,289.81,398.58Z" transform="translate(-281 -371)"/><path class="cls-1" d="M295.74,403.91c0,.27-.18.32-.44.36C295.29,403.92,295.42,403.82,295.74,403.91Z" transform="translate(-281 -371)"/><path class="cls-1" d="M312.22,413.07a1.32,1.32,0,0,1-1.39,1.37,1.38,1.38,0,1,1,0-2.75A1.31,1.31,0,0,1,312.22,413.07Z" transform="translate(-281 -371)"/><path class="cls-1" d="M294.8,394.25c.24.13.36-.09.54-.13.17.28,0,.45-.16.62a1.35,1.35,0,0,0-.39.79c0,.42.11.51.46.29.15-.09.25-.16.39,0-.13.52-.76.71-.82,1.3-.7-.9-.55-4.4.43-4.72C295.33,393.08,294.68,393.57,294.8,394.25Z" transform="translate(-281 -371)"/><path class="cls-1" d="M294.1,398.12c-.5.78-.5.78.27,1.07-.4.38-.29.7.08,1,.12.11.1.36.16.61-1.28-1.12-2.14-3.19-1.16-4.15.12.21,0,.37,0,.55C293.21,398,293.31,398.11,294.1,398.12Z" transform="translate(-281 -371)"/><path class="cls-1" d="M294,394.14c-.51-.08-.6-.39-.63-.79C293.88,393.43,294,393.63,294,394.14Z" transform="translate(-281 -371)"/><path class="cls-1" d="M293,394.92a1.9,1.9,0,0,1,.72,0,.19.19,0,0,1,.2.23c0,.15-.14.18-.26.15A1,1,0,0,1,293,394.92Z" transform="translate(-281 -371)"/><path class="cls-1" d="M294.19,392a.7.7,0,0,1,0,.95A.72.72,0,0,1,294.19,392Z" transform="translate(-281 -371)"/><path class="cls-1" d="M291.86,396.74c.38.12.68.22.79.58C292.2,397.46,292,397.34,291.86,396.74Z" transform="translate(-281 -371)"/><path class="cls-1" d="M304.65,412.53a17,17,0,0,1,.91,1.88h-1.82A9.8,9.8,0,0,1,304.65,412.53Z" transform="translate(-281 -371)"/><path class="cls-1" d="M323.47,414.42h-1.85a9.17,9.17,0,0,1,.94-1.88Z" transform="translate(-281 -371)"/></svg>